<?xml version="1.0" encoding="utf-8"?>
<!-- Generator: Adobe Illustrator 24.0.2, SVG Export Plug-In . SVG Version: 6.00 Build 0)  -->
<svg version="1.1" id="Capa_1" xmlns="http://www.w3.org/2000/svg" xmlns:xlink="http://www.w3.org/1999/xlink" x="0px" y="0px"
	 viewBox="0 0 1430 557.4" style="enable-background:new 0 0 1430 557.4;" xml:space="preserve">
<style type="text/css">
	.st0{fill:#FFFFFF;}
</style>
<g>
	<g>
		<g>
			<path class="st0" d="M636.5,15.3v44.4h49.4v12.9h-49.4V118h55v13.6h-71.8V1.6h71.8v13.7H636.5z"/>
			<path class="st0" d="M789.3,101.6h-57.2l-10.9,30.1h-18.1L751.3,4h19l48,127.7h-18.1L789.3,101.6z M784.5,88.5l-23.8-65.7
				l-23.8,65.7H784.5z"/>
			<path class="st0" d="M913,115.1c-3,5.3-7.4,9.6-13.5,12.9c-6,3.3-13.5,5-22.3,5c-8.6,0-16.3-1.6-23-4.7
				c-6.7-3.1-12.1-7.4-16-12.9c-4-5.5-6.3-11.7-6.9-18.7h17.9c0.4,3.7,1.6,7.3,3.8,10.8c2.1,3.5,5.2,6.4,9.2,8.7
				c4,2.3,8.8,3.4,14.5,3.4c7.4,0,13-2,17-5.9c3.9-3.9,5.9-9,5.9-15.1c0-5.3-1.4-9.6-4.2-12.9c-2.8-3.3-6.2-5.9-10.2-7.8
				c-4.1-1.9-9.6-4-16.6-6.2c-8.2-2.7-14.9-5.3-19.8-7.7c-5-2.4-9.2-6-12.7-10.8c-3.5-4.8-5.3-11.1-5.3-19c0-6.8,1.6-12.7,4.9-17.9
				c3.3-5.2,7.9-9.2,14-12c6.1-2.8,13.3-4.2,21.5-4.2c12.8,0,22.9,3.1,30.4,9.3c7.5,6.2,11.9,14.1,13.1,23.7h-18.1
				c-1-5.2-3.6-9.7-7.9-13.7c-4.3-3.9-10.1-5.9-17.5-5.9c-6.8,0-12.2,1.8-16.2,5.3c-4.1,3.5-6.1,8.5-6.1,14.9c0,5,1.3,9.1,4,12.3
				c2.6,3.1,5.9,5.6,9.9,7.4c3.9,1.8,9.3,3.8,16.2,6c8.4,2.7,15.1,5.3,20.2,7.8c5.1,2.5,9.4,6.2,13,11.1c3.6,5,5.4,11.6,5.4,19.8
				C917.5,104,916,109.8,913,115.1z"/>
			<path class="st0" d="M1041.6,100.9c-5.3,9.8-13.1,17.4-23.3,22.7c-10.3,5.4-22.6,8-37,8H940V1.6h41.3c14.4,0,26.7,2.6,37,7.8
				c10.3,5.2,18,12.7,23.3,22.5c5.3,9.8,7.9,21.3,7.9,34.6C1049.6,79.7,1046.9,91.2,1041.6,100.9z M1018.9,103.4
				c9-8.7,13.5-21,13.5-36.9c0-15.9-4.5-28.2-13.4-37c-8.9-8.8-21.9-13.2-39-13.2h-23.2v100.2H980
				C997,116.5,1010,112.2,1018.9,103.4z"/>
			<path class="st0" d="M718.6,190.1c10.6,8,17.2,18.8,19.7,32.5H705c-2.2-4.7-5.6-8.4-10.1-11.2c-4.5-2.8-10-4.2-16.4-4.2
				c-10,0-18,3.4-24,10.1c-6,6.7-9,15.8-9,27.2c0,12.4,3.2,22,9.5,28.6c6.3,6.6,15.3,10,27,10c7.5,0,14.1-2.1,19.7-6.2
				c5.7-4.1,9.7-10,12-17.6h-39.9v-22.7H740v31.2c-2.5,7.6-6.4,14.7-11.8,21.2c-5.4,6.5-12.3,11.8-20.8,15.9
				c-8.4,4-18.1,6.1-28.9,6.1c-13.2,0-24.7-2.8-34.5-8.4c-9.8-5.6-17.4-13.4-22.8-23.5c-5.3-10.1-8-21.6-8-34.5
				c0-12.9,2.7-24.4,8-34.5c5.4-10.1,12.9-17.9,22.7-23.5c9.8-5.6,21.2-8.4,34.2-8.4C694.6,178.1,708,182.1,718.6,190.1z"/>
			<path class="st0" d="M804.5,211.3c6.2-3.7,12.9-5.5,20.2-5.5v33.8h-9c-8.4,0-14.9,1.8-19.5,5.3c-4.6,3.6-6.9,9.6-6.9,18.1v46.9
				h-31.5v-103h31.5v19.4C793.2,220,798.3,215,804.5,211.3z"/>
			<path class="st0" d="M897.4,210.9c5.7,3.6,9.8,8.4,12.5,14.6v-18.6h31.4v103h-31.4v-18.6c-2.7,6.1-6.9,11-12.5,14.6
				c-5.7,3.6-12.4,5.4-20.3,5.4c-8.5,0-16.1-2.1-22.8-6.4c-6.7-4.2-12-10.4-15.9-18.4c-3.9-8-5.8-17.3-5.8-28
				c0-10.8,1.9-20.2,5.8-28.1c3.9-7.9,9.2-14,15.9-18.3c6.7-4.3,14.3-6.4,22.8-6.4C885,205.6,891.7,207.4,897.4,210.9z M870.9,239.9
				c-4.1,4.4-6.2,10.6-6.2,18.5c0,7.9,2.1,14,6.2,18.4c4.1,4.4,9.6,6.6,16.3,6.6c6.6,0,12.1-2.3,16.3-6.8c4.2-4.6,6.4-10.6,6.4-18.3
				c0-7.8-2.1-13.9-6.4-18.4c-4.2-4.5-9.7-6.7-16.3-6.7C880.5,233.3,875,235.5,870.9,239.9z"/>
			<path class="st0" d="M1056.5,217.6c6.9,7.9,10.4,18.7,10.4,32.5v59.8h-31.5v-56.1c0-6.9-1.8-12.3-5.4-16.1
				c-3.6-3.9-8.5-5.8-14.5-5.8c-6.4,0-11.5,2-15.2,6.1c-3.7,4.1-5.6,9.8-5.6,17.3v54.6h-31.5v-103h31.5v18.8c3-6.2,7.4-11,13.2-14.6
				c5.8-3.6,12.7-5.4,20.6-5.4C1040.2,205.8,1049.6,209.7,1056.5,217.6z"/>
			<path class="st0" d="M718,369.4c10.9,8.7,17.9,20.5,21.1,35.4h-33.4c-2.5-6-6.2-10.8-11.3-14.2c-5.1-3.4-11.2-5.2-18.2-5.2
				c-9.2,0-16.7,3.4-22.3,10.1c-5.7,6.8-8.5,15.8-8.5,27.1c0,11.3,2.8,20.3,8.5,27c5.7,6.7,13.1,10.1,22.3,10.1
				c7,0,13.1-1.7,18.2-5.2c5.1-3.4,8.9-8.1,11.3-14h33.4c-3.2,14.8-10.2,26.5-21.1,35.3c-10.9,8.8-24.6,13.2-41.2,13.2
				c-12.7,0-23.8-2.8-33.4-8.4c-9.6-5.6-17-13.4-22.2-23.5c-5.2-10.1-7.8-21.6-7.8-34.5c0-12.9,2.6-24.4,7.8-34.5
				c5.2-10.1,12.6-17.9,22.2-23.5c9.6-5.6,20.7-8.4,33.4-8.4C693.3,356.3,707.1,360.6,718,369.4z"/>
			<path class="st0" d="M816.2,389.1c5.7,3.6,9.8,8.4,12.5,14.6V385h31.4v103h-31.4v-18.6c-2.7,6.2-6.9,11-12.5,14.6
				c-5.7,3.6-12.4,5.4-20.3,5.4c-8.5,0-16.1-2.1-22.8-6.4c-6.7-4.2-12-10.4-15.9-18.4c-3.9-8-5.8-17.3-5.8-28
				c0-10.8,1.9-20.2,5.8-28.1c3.9-7.9,9.2-14,15.9-18.3c6.7-4.2,14.3-6.4,22.8-6.4C803.8,383.7,810.5,385.5,816.2,389.1z
				 M789.7,418.1c-4.1,4.4-6.2,10.6-6.2,18.5c0,7.9,2.1,14,6.2,18.4c4.1,4.4,9.6,6.6,16.3,6.6c6.6,0,12.1-2.3,16.3-6.8
				c4.2-4.5,6.4-10.6,6.4-18.3c0-7.8-2.1-13.9-6.4-18.4c-4.2-4.5-9.7-6.7-16.3-6.7C799.3,411.4,793.9,413.6,789.7,418.1z"/>
			<path class="st0" d="M975.3,395.7c6.9,7.9,10.4,18.7,10.4,32.5V488h-31.6v-56.1c0-6.9-1.8-12.3-5.4-16.1
				c-3.6-3.9-8.5-5.8-14.5-5.8c-6.4,0-11.5,2-15.2,6.1c-3.8,4.1-5.6,9.9-5.6,17.3V488h-31.5V385h31.5v18.8c3-6.1,7.3-11,13.2-14.6
				c5.8-3.6,12.7-5.4,20.6-5.4C959,383.9,968.4,387.9,975.3,395.7z"/>
			<path class="st0" d="M1066,389.1c5.7,3.6,9.8,8.4,12.5,14.6V385h31.4v103h-31.4v-18.6c-2.7,6.2-6.9,11-12.5,14.6
				c-5.7,3.6-12.4,5.4-20.3,5.4c-8.5,0-16.1-2.1-22.8-6.4c-6.7-4.2-12-10.4-15.9-18.4c-3.9-8-5.8-17.3-5.8-28
				c0-10.8,1.9-20.2,5.8-28.1c3.9-7.9,9.2-14,15.9-18.3c6.7-4.2,14.3-6.4,22.8-6.4C1053.6,383.7,1060.3,385.5,1066,389.1z
				 M1039.5,418.1c-4.1,4.4-6.2,10.6-6.2,18.5c0,7.9,2.1,14,6.2,18.4c4.1,4.4,9.6,6.6,16.3,6.6c6.6,0,12.1-2.3,16.3-6.8
				c4.2-4.5,6.4-10.6,6.4-18.3c0-7.8-2.1-13.9-6.4-18.4c-4.2-4.5-9.7-6.7-16.3-6.7C1049.1,411.4,1043.6,413.6,1039.5,418.1z"/>
			<path class="st0" d="M1178.4,389.5c6.2-3.7,12.9-5.5,20.2-5.5v33.8h-9c-8.4,0-14.9,1.8-19.5,5.3c-4.6,3.6-6.9,9.6-6.9,18.1V488
				h-31.5V385h31.5v19.4C1167.2,398.1,1172.2,393.2,1178.4,389.5z"/>
			<path class="st0" d="M1214.1,344.2c3.4-3.1,8-4.7,13.7-4.7c5.6,0,10.2,1.6,13.6,4.7c3.4,3.1,5.2,7.1,5.2,11.9
				c0,4.7-1.7,8.6-5.2,11.7c-3.4,3.1-8,4.7-13.6,4.7c-5.7,0-10.2-1.6-13.7-4.7c-3.4-3.1-5.2-7-5.2-11.7
				C1209,351.3,1210.7,347.3,1214.1,344.2z M1243.5,385v103h-31.5V385H1243.5z"/>
			<path class="st0" d="M1324.7,389.1c5.6,3.6,9.8,8.4,12.5,14.6V385h31.4v103h-31.4v-18.6c-2.7,6.2-6.9,11-12.5,14.6
				c-5.7,3.6-12.4,5.4-20.3,5.4c-8.5,0-16.1-2.1-22.8-6.4c-6.7-4.2-12-10.4-15.9-18.4c-3.9-8-5.8-17.3-5.8-28
				c0-10.8,1.9-20.2,5.8-28.1c3.9-7.9,9.2-14,15.9-18.3c6.7-4.2,14.3-6.4,22.8-6.4C1312.2,383.7,1319,385.5,1324.7,389.1z
				 M1298.2,418.1c-4.1,4.4-6.2,10.6-6.2,18.5c0,7.9,2.1,14,6.2,18.4c4.1,4.4,9.6,6.6,16.3,6.6c6.6,0,12.1-2.3,16.3-6.8
				c4.3-4.5,6.4-10.6,6.4-18.3c0-7.8-2.1-13.9-6.4-18.4c-4.2-4.5-9.7-6.7-16.3-6.7C1307.7,411.4,1302.3,413.6,1298.2,418.1z"/>
			<path class="st0" d="M1430,456.4V488h-32.7v-31.5H1430z"/>
		</g>
	</g>
	<path class="st0" d="M320,557.4l42.7-82.3h103.3h8.5v-8.5V9V0.5h-8.5H8.5H0V9v457.6v8.5h8.5h273.8L320,557.4z M414.5,415h-8.9H340
		h-28.9h-14.4h-25.1h-70.8H60.1V60.6h354.4V415z"/>
</g>
</svg>
