<?xml version="1.0" encoding="utf-8"?>
<!-- Generator: Adobe Illustrator 24.0.2, SVG Export Plug-In . SVG Version: 6.00 Build 0)  -->
<svg version="1.1" id="Capa_1" xmlns:sketch="http://www.bohemiancoding.com/sketch/ns"
	 xmlns="http://www.w3.org/2000/svg" xmlns:xlink="http://www.w3.org/1999/xlink" x="0px" y="0px" viewBox="0 0 16 16"
	 style="enable-background:new 0 0 16 16;" xml:space="preserve">
<style type="text/css">
	.st0{fill-rule:evenodd;clip-rule:evenodd;}
</style>
<title></title>
<g id="Icons_with_numbers">
	<g id="Group" transform="translate(-336.000000, 0.000000)">
		<path id="Shape" class="st0" d="M346,8.6l5.7,4.9c-0.2,0.2-0.5,0.3-0.8,0.3h-13.7c-0.3,0-0.6-0.1-0.8-0.3l5.7-5l2,1.8L346,8.6z
			 M344,9.2l-7.6-6.7c0.2-0.2,0.5-0.3,0.8-0.3h13.7c0.3,0,0.6,0.1,0.8,0.3L344,9.2z M352,12.9l-5.5-4.8l5.5-4.9V12.9L352,12.9z
			 M336,12.9V3.2l5.5,4.9L336,12.9L336,12.9z"/>
	</g>
</g>
</svg>
